<?xml version="1.0" standalone="no"?>
<!DOCTYPE svg PUBLIC "-//W3C//DTD SVG 1.1//EN" "http://www.w3.org/Graphics/SVG/1.1/DTD/svg11.dtd" >
<svg xmlns="http://www.w3.org/2000/svg">
<metadata>Generated by IcoMoon</metadata>
<defs>
<font id="convicon" horiz-adv-x="1024">
<font-face units-per-em="1024" ascent="960" descent="-64" />
<missing-glyph horiz-adv-x="1024" />
<glyph unicode="&#x20;" horiz-adv-x="512" d="" />
<glyph unicode="&#xe900;" glyph-name="bar-chart" d="M204.8-64h-204.8v716.8h204.8v-716.8zM614.4-64h-204.8v1024h204.8v-1024zM1024-64h-204.8v409.6h204.8v-409.6z" />
<glyph unicode="&#xe901;" glyph-name="attachment" d="M678.016 704h64v-490.016q0-98.016-68.992-167.008t-166.016-68.992-166.016 68.992-68.992 167.008v532q0 72 50.016 122.016t120.992 50.016 120.992-50.016 50.016-122.016v-448q0-44-32-75.008t-76-31.008-75.008 31.008-31.008 75.008v406.016h64v-406.016q0-16 12.992-28.992t30.016-12.992 30.016 12.992 12.992 28.992v448q0 44-32 76t-76 32-75.008-32-31.008-76v-532q0-72 50.016-122.016t120.992-50.016 120.992 50.016 50.016 122.016v490.016z" />
<glyph unicode="&#xe902;" glyph-name="attachment-2" d="M234.016 213.984q-96 0-164.992 68t-68.992 166.016 68.992 166.016 164.992 68h448q72 0 122.016-50.016t50.016-120-50.016-120-122.016-50.016h-362.016q-44 0-75.008 31.008t-31.008 75.008 31.008 75.008 75.008 31.008h320v-64h-320q-18.016 0-30.016-12t-12-30.016 12-30.016 30.016-12h362.016q44 0 76 31.008t32 75.008-32 75.008-76 31.008h-448q-70.016 0-120-50.016t-50.016-120 50.016-120 120-50.016h406.016v-64h-406.016z" />
<glyph unicode="&#xe903;" glyph-name="pencil" d="M128 224l472 472 160-160-472-472h-160v160zM884 660l-78.016-78.016-160 160 78.016 78.016q12 12 30.016 12t30.016-12l100-100q12-12 12-30.016t-12-30.016z" />
<glyph unicode="&#xe904;" glyph-name="sign-in" d="M430.016 293.984l110.016 112h-412v84h412l-110.016 112 60 60 214.016-214.016-214.016-214.016zM810.016 832q36 0 60.992-24.992t24.992-60.992v-596q0-36-24.992-60.992t-60.992-24.992h-596q-36 0-60.992 24.992t-24.992 60.992v170.016h86.016v-170.016h596v596h-596v-170.016h-86.016v170.016q0 36 24.992 60.992t60.992 24.992h596z" />
<glyph unicode="&#xe905;" glyph-name="group-add" d="M342.016 533.984v-86.016h-128v-128h-86.016v128h-128v86.016h128v128h86.016v-128h128zM768 489.984q-20 0-38.016 6.016 38.016 56 38.016 122.016 0 68-38.016 122.016 18.016 6.016 38.016 6.016 54.016 0 91.008-36.992t36.992-90.016-36.992-91.008-91.008-38.016zM555.008 489.984q-52.992 0-91.008 38.016t-38.016 91.008 38.016 90.016 91.008 36.992 90.016-36.992 36.992-90.016-36.992-91.008-90.016-38.016zM838.016 397.984q74.016-12 130.016-44t56-76v-86.016h-128v86.016q0 68-58.016 120zM554.016 405.984q80 0 168-36t88-92v-86.016h-512v86.016q0 56 88 92t168 36z" />
<glyph unicode="&#xe906;" glyph-name="message-text" d="M768 873.984q36 0 60.992-24.992t24.992-59.008v-768l-172 170.016h-596q-36 0-60.992 24.992t-24.992 60.992v512q0 34.016 24.992 59.008t60.992 24.992h682.016zM682.016 361.984v86.016h-512v-86.016h512zM682.016 489.984v86.016h-512v-86.016h512zM682.016 617.984v86.016h-512v-86.016h512z" />
<glyph unicode="&#xe907;" glyph-name="message-outline" d="M768 873.984q36 0 60.992-24.992t24.992-59.008v-512q0-36-24.992-60.992t-60.992-24.992h-598.016l-170.016-170.016v768q0 34.016 24.992 59.008t60.992 24.992h682.016zM768 277.984v512h-682.016v-598.016l84 86.016h598.016z" />
<glyph unicode="&#xe908;" glyph-name="add-circle-outline" d="M554.667 661.333h-85.333v-170.667h-170.667v-85.333h170.667v-170.667h85.333v170.667h170.667v85.333h-170.667v170.667zM512 874.667c-234.667 0-426.667-192-426.667-426.667s192-426.667 426.667-426.667c234.667 0 426.667 192 426.667 426.667s-192 426.667-426.667 426.667zM512 106.667c-187.733 0-341.333 153.6-341.333 341.333s153.6 341.333 341.333 341.333c187.733 0 341.333-153.6 341.333-341.333s-153.6-341.333-341.333-341.333z" />
<glyph unicode="&#xe909;" glyph-name="arrow-back" d="M853.333 490.667h-520.533l238.933 238.933-59.733 59.733-341.333-341.333 341.333-341.333 59.733 59.733-238.933 238.933h520.533v85.333z" />
<glyph unicode="&#xe90a;" glyph-name="arrow-forward" d="M512 789.333l-59.733-59.733 238.933-238.933h-520.533v-85.333h520.533l-238.933-238.933 59.733-59.733 341.333 341.333z" />
<glyph unicode="&#xe90b;" glyph-name="camera" d="M648.533 448c0-75.405-61.128-136.533-136.533-136.533s-136.533 61.128-136.533 136.533c0 75.405 61.128 136.533 136.533 136.533s136.533-61.128 136.533-136.533zM384 874.667l-76.8-85.333h-136.533c-46.933 0-85.333-38.4-85.333-85.333v-512c0-46.933 38.4-85.333 85.333-85.333h682.667c46.933 0 85.333 38.4 85.333 85.333v512c0 46.933-38.4 85.333-85.333 85.333h-136.533l-76.8 85.333h-256zM512 234.667c-119.467 0-213.333 93.867-213.333 213.333s93.867 213.333 213.333 213.333 213.333-93.867 213.333-213.333-93.867-213.333-213.333-213.333z" />
<glyph unicode="&#xe90c;" glyph-name="camera-lens" d="M401.067 512l204.8 354.133c-29.867 4.267-64 8.533-93.867 8.533-102.4 0-196.267-34.133-268.8-98.133l157.867-268.8v4.267zM917.333 576c-38.4 123.733-132.267 226.133-256 268.8l-153.6-268.8h409.6zM930.133 533.333h-320l12.8-21.333 204.8-354.133c68.267 76.8 110.933 179.2 110.933 290.133 0 29.867-4.267 59.733-8.533 85.333zM362.667 448l-166.4 290.133c-68.267-76.8-110.933-179.2-110.933-290.133 0-29.867 4.267-59.733 8.533-85.333h320l-51.2 85.333zM106.667 320c38.4-123.733 132.267-226.133 256-268.8l157.867 268.8h-413.867zM584.533 320l-166.4-290.133c29.867-8.533 59.733-8.533 93.867-8.533 102.4 0 196.267 34.133 268.8 98.133l-157.867 268.8-38.4-68.267z" />
<glyph unicode="&#xe90d;" glyph-name="chevron-left" d="M657.067 644.267l-59.733 59.733-256-256 256-256 59.733 59.733-196.267 196.267z" />
<glyph unicode="&#xe90e;" glyph-name="chevron-right" d="M426.667 704l-59.733-59.733 196.267-196.267-196.267-196.267 59.733-59.733 256 256z" />
<glyph unicode="&#xe90f;" glyph-name="close" d="M810.667 686.933l-59.733 59.733-238.933-238.933-238.933 238.933-59.733-59.733 238.933-238.933-238.933-238.933 59.733-59.733 238.933 238.933 238.933-238.933 59.733 59.733-238.933 238.933z" />
<glyph unicode="&#xe910;" glyph-name="favorite-outline" d="M704 832c-72.533 0-145.067-34.133-192-89.6-46.933 55.467-119.467 89.6-192 89.6-132.267 0-234.667-102.4-234.667-234.667 0-162.133 145.067-294.4 366.933-490.667l59.733-55.467 59.733 55.467c217.6 200.533 366.933 332.8 366.933 490.667 0 132.267-102.4 234.667-234.667 234.667zM516.267 166.4h-4.267l-4.267 4.267c-204.8 183.467-337.067 302.933-337.067 426.667 0 85.333 64 149.333 149.333 149.333 64 0 128-42.667 153.6-102.4h81.067c21.333 59.733 85.333 102.4 149.333 102.4 85.333 0 149.333-64 149.333-149.333 0-123.733-132.267-243.2-337.067-430.933z" />
<glyph unicode="&#xe911;" glyph-name="favorite" d="M512 46.933l-59.733 59.733c-221.867 196.267-366.933 328.533-366.933 490.667 0 132.267 102.4 234.667 234.667 234.667 72.533 0 145.067-34.133 192-89.6 46.933 55.467 119.467 89.6 192 89.6 132.267 0 234.667-102.4 234.667-234.667 0-162.133-145.067-294.4-366.933-490.667l-59.733-59.733z" />
<glyph unicode="&#xe912;" glyph-name="image" d="M896 149.333v597.333c0 46.933-38.4 85.333-85.333 85.333h-597.333c-46.933 0-85.333-38.4-85.333-85.333v-597.333c0-46.933 38.4-85.333 85.333-85.333h597.333c46.933 0 85.333 38.4 85.333 85.333zM362.667 384l106.667-128 149.333 192 192-256h-597.333l149.333 192z" />
<glyph unicode="&#xe913;" glyph-name="smiley" d="M661.333 533.333c34.133 0 64 29.867 64 64s-29.867 64-64 64-64-29.867-64-64 29.867-64 64-64zM362.667 533.333c34.133 0 64 29.867 64 64s-29.867 64-64 64c-34.133 0-64-29.867-64-64s29.867-64 64-64zM512 234.667c110.933 0 204.8 72.533 243.2 170.667h-486.4c38.4-98.133 132.267-170.667 243.2-170.667zM512 917.333c-234.667 0-426.667-192-426.667-426.667s192-426.667 426.667-426.667c234.667 0 426.667 192 426.667 426.667s-192 426.667-426.667 426.667zM512 149.333c-187.733 0-341.333 153.6-341.333 341.333s153.6 341.333 341.333 341.333c187.733 0 341.333-153.6 341.333-341.333s-153.6-341.333-341.333-341.333z" />
<glyph unicode="&#xe914;" glyph-name="notifications-none" d="M490.667 21.333c46.933 0 85.333 38.4 85.333 85.333h-170.667c0-46.933 38.4-85.333 85.333-85.333zM768 277.333v234.667c0 132.267-89.6 238.933-213.333 268.8v29.867c0 34.133-29.867 64-64 64s-64-29.867-64-64v-29.867c-123.733-29.867-213.333-136.533-213.333-268.8v-234.667l-85.333-85.333v-42.667h725.333v42.667l-85.333 85.333zM682.667 234.667h-384v277.333c0 106.667 85.333 192 192 192s192-85.333 192-192v-277.333z" />
<glyph unicode="&#xe915;" glyph-name="notifications-off" d="M490.667 21.333c46.933 0 85.333 38.4 85.333 85.333h-170.667c0-46.933 38.4-85.333 85.333-85.333zM768 512c0 132.267-89.6 238.933-213.333 268.8v29.867c0 34.133-29.867 64-64 64s-64-29.867-64-64v-29.867c-21.333-4.267-42.667-12.8-59.733-21.333l401.067-401.067v153.6zM755.2 149.333l85.333-85.333 55.467 55.467-712.533 712.533-55.467-55.467 123.733-123.733c-25.6-42.667-38.4-89.6-38.4-140.8v-234.667l-85.333-85.333v-42.667h627.2z" />
<glyph unicode="&#xe916;" glyph-name="notifications-on" d="M281.6 806.4l-59.733 59.733c-102.4-76.8-170.667-196.267-179.2-332.8h85.333c8.533 115.2 64 213.333 153.6 273.067zM853.333 533.333h85.333c-8.533 136.533-72.533 256-174.933 332.8l-59.733-59.733c85.333-59.733 140.8-157.867 149.333-273.067zM768 512c0 132.267-89.6 238.933-213.333 268.8v29.867c0 34.133-29.867 64-64 64s-64-29.867-64-64v-29.867c-123.733-29.867-213.333-136.533-213.333-268.8v-234.667l-85.333-85.333v-42.667h725.333v42.667l-85.333 85.333v234.667zM490.667 21.333c4.267 0 12.8 0 17.067 0 29.867 4.267 51.2 25.6 59.733 51.2 4.267 8.533 8.533 21.333 8.533 34.133h-170.667c0-46.933 38.4-85.333 85.333-85.333z" />
<glyph unicode="&#xe917;" glyph-name="notifications" d="M490.667 21.333c46.933 0 85.333 38.4 85.333 85.333h-170.667c0-46.933 38.4-85.333 85.333-85.333zM768 277.333v234.667c0 132.267-89.6 238.933-213.333 268.8v29.867c0 34.133-29.867 64-64 64s-64-29.867-64-64v-29.867c-123.733-29.867-213.333-136.533-213.333-268.8v-234.667l-85.333-85.333v-42.667h725.333v42.667l-85.333 85.333z" />
<glyph unicode="&#xe918;" glyph-name="group" d="M682.667 490.667c72.533 0 128 55.467 128 128s-55.467 128-128 128c-72.533 0-128-55.467-128-128s55.467-128 128-128zM341.333 490.667c72.533 0 128 55.467 128 128s-55.467 128-128 128c-72.533 0-128-55.467-128-128s55.467-128 128-128zM341.333 405.333c-98.133 0-298.667-51.2-298.667-149.333v-106.667h597.333v106.667c0 98.133-200.533 149.333-298.667 149.333zM682.667 405.333c-12.8 0-25.6 0-42.667-4.267 51.2-34.133 85.333-85.333 85.333-145.067v-106.667h256v106.667c0 98.133-200.533 149.333-298.667 149.333z" />
<glyph unicode="&#xe919;" glyph-name="person-outline" d="M512 708.267c51.2 0 89.6-38.4 89.6-89.6s-38.4-89.6-89.6-89.6-89.6 38.4-89.6 89.6 38.4 89.6 89.6 89.6zM512 324.267c128 0 260.267-64 260.267-89.6v-46.933h-520.533v46.933c0 25.6 132.267 89.6 260.267 89.6zM512 789.333c-93.867 0-170.667-76.8-170.667-170.667s76.8-170.667 170.667-170.667c93.867 0 170.667 76.8 170.667 170.667s-76.8 170.667-170.667 170.667v0zM512 405.333c-115.2 0-341.333-55.467-341.333-170.667v-128h682.667v128c0 115.2-226.133 170.667-341.333 170.667v0z" />
<glyph unicode="&#xe91a;" glyph-name="person" d="M512 448c93.867 0 170.667 76.8 170.667 170.667s-76.8 170.667-170.667 170.667c-93.867 0-170.667-76.8-170.667-170.667s76.8-170.667 170.667-170.667zM512 362.667c-115.2 0-341.333-55.467-341.333-170.667v-85.333h682.667v85.333c0 115.2-226.133 170.667-341.333 170.667z" />
<glyph unicode="&#xe91b;" glyph-name="search" d="M661.333 362.667h-34.133l-12.8 12.8c42.667 46.933 68.267 110.933 68.267 179.2 0 153.6-123.733 277.333-277.333 277.333s-277.333-123.733-277.333-277.333 123.733-277.333 277.333-277.333c68.267 0 132.267 25.6 179.2 68.267l12.8-12.8v-34.133l213.333-213.333 64 64-213.333 213.333zM405.333 362.667c-106.667 0-192 85.333-192 192s85.333 192 192 192c106.667 0 192-85.333 192-192s-85.333-192-192-192z" />
<glyph unicode="&#xe91c;" glyph-name="send" d="M85.333 64l896 384-896 384v-298.667l640-85.333-640-85.333z" />
<glyph unicode="&#xe91d;" glyph-name="sign-out" d="M600.747 294.827l110.507 110.507h-412.587v85.333h412.587l-110.507 110.507 60.587 60.16 213.333-213.333-213.333-213.333-60.587 60.16zM810.667 832c47.128 0 85.333-38.205 85.333-85.333v-199.253l-85.333 85.333v113.92h-597.333v-597.333h597.333v113.92l85.333 85.333v-199.253c0-47.128-38.205-85.333-85.333-85.333h-597.333c-47.36 0-85.333 38.4-85.333 85.333v597.333c0 47.36 37.973 85.333 85.333 85.333h597.333z" />
<glyph unicode="&#xe91e;" glyph-name="more" horiz-adv-x="256" d="M128 704c70.4 0 128 57.6 128 128s-57.6 128-128 128c-70.4 0-128-57.6-128-128s57.6-128 128-128zM128 576c-70.4 0-128-57.6-128-128s57.6-128 128-128c70.4 0 128 57.6 128 128s-57.6 128-128 128zM128 192c-70.4 0-128-57.6-128-128s57.6-128 128-128c70.4 0 128 57.6 128 128s-57.6 128-128 128z" />
<glyph unicode="&#xe91f;" glyph-name="earth" d="M512 960c-281.6 0-512-230.4-512-512s230.4-512 512-512c281.6 0 512 230.4 512 512s-230.4 512-512 512zM460.8 43.52c-199.68 25.6-358.4 199.68-358.4 404.48 0 30.72 5.12 61.44 10.24 92.16l245.76-245.76v-51.2c0-56.32 46.080-102.4 102.4-102.4v-97.28zM814.080 171.52c-15.36 40.96-51.2 71.68-97.28 71.68h-51.2v153.6c0 30.72-20.48 51.2-51.2 51.2h-307.2v102.4h102.4c30.72 0 51.2 20.48 51.2 51.2v102.4h102.4c56.32 0 102.4 46.080 102.4 102.4v20.48c148.48-61.44 256-209.92 256-378.88 0-107.52-40.96-204.8-107.52-276.48z" />
<glyph unicode="&#xf1f0;" glyph-name="alert-outline" d="M384 320h86v-86h-86v86zM384 662h86v-256h-86v256zM427 874q177 0 302-125t125-301-125-301-302-125-302 125-125 301 125 301 302 125zM427 106q141 0 241 100t100 242-100 242-241 100-241-100-100-242 100-242 241-100z" />
<glyph unicode="&#xf1f7;" glyph-name="info-outline" d="M384 234v256h86v-256h-86zM427 874q177 0 302-125t125-301-125-301-302-125-302 125-125 301 125 301 302 125zM427 106q141 0 241 100t100 242-100 242-241 100-241-100-100-242 100-242 241-100zM384 576v86h86v-86h-86z" />
</font>
</defs>
</svg>
